<?xml version="1.0" encoding="UTF-8"?>
<svg width="206px" height="235px" viewBox="0 0 206 235" version="1.1" xmlns="http://www.w3.org/2000/svg" xmlns:xlink="http://www.w3.org/1999/xlink">
    <!-- Generator: Sketch 55.2 (78181) - https://sketchapp.com -->
    <title>cchsflow</title>
    <desc>Created with Sketch.</desc>
    <defs>
        <filter x="-6.4%" y="-5.5%" width="112.8%" height="111.1%" filterUnits="objectBoundingBox" id="filter-1">
            <feOffset dx="0" dy="2" in="SourceAlpha" result="shadowOffsetOuter1"></feOffset>
            <feGaussianBlur stdDeviation="2" in="shadowOffsetOuter1" result="shadowBlurOuter1"></feGaussianBlur>
            <feColorMatrix values="0 0 0 0 0   0 0 0 0 0   0 0 0 0 0  0 0 0 0.5 0" type="matrix" in="shadowBlurOuter1" result="shadowMatrixOuter1"></feColorMatrix>
            <feMerge>
                <feMergeNode in="shadowMatrixOuter1"></feMergeNode>
                <feMergeNode in="SourceGraphic"></feMergeNode>
            </feMerge>
        </filter>
        <path d="M51.0214844,133.271484 C46.8222446,135.146494 41.8125291,136.083984 35.9921875,136.083984 C28.882777,136.083984 23.3457229,134.082051 19.3808594,130.078125 C15.4159958,126.074199 13.4335938,120.488317 13.4335938,113.320312 C13.4335938,106.015588 15.4306441,100.395527 19.4248047,96.4599609 C23.4189653,92.5243944 29.1171505,90.5566406 36.5195312,90.5566406 C41.2461174,90.5566406 45.943336,91.1132757 50.6113281,92.2265625 L50.6113281,99.2871094 C45.3183329,97.4316313 40.8847835,96.5039062 37.3105469,96.5039062 C32.7402115,96.5039062 29.2148562,97.9540871 26.734375,100.854492 C24.2538938,103.754897 23.0136719,107.871067 23.0136719,113.203125 C23.0136719,118.437526 24.3466664,122.519517 27.0126953,125.449219 C29.6787243,128.378921 33.3847419,129.84375 38.1308594,129.84375 C42.3886932,129.84375 46.6855252,128.769542 51.0214844,126.621094 L51.0214844,133.271484 Z M93.765625,133.271484 C89.5663853,135.146494 84.5566697,136.083984 78.7363281,136.083984 C71.6269176,136.083984 66.0898636,134.082051 62.125,130.078125 C58.1601364,126.074199 56.1777344,120.488317 56.1777344,113.320312 C56.1777344,106.015588 58.1747847,100.395527 62.1689453,96.4599609 C66.1631059,92.5243944 71.8612911,90.5566406 79.2636719,90.5566406 C83.990258,90.5566406 88.6874767,91.1132757 93.3554688,92.2265625 L93.3554688,99.2871094 C88.0624735,97.4316313 83.6289241,96.5039062 80.0546875,96.5039062 C75.4843521,96.5039062 71.9589968,97.9540871 69.4785156,100.854492 C66.9980345,103.754897 65.7578125,107.871067 65.7578125,113.203125 C65.7578125,118.437526 67.090807,122.519517 69.7568359,125.449219 C72.4228649,128.378921 76.1288825,129.84375 80.875,129.84375 C85.1328338,129.84375 89.4296658,128.769542 93.765625,126.621094 L93.765625,133.271484 Z M101.617188,135 L101.617188,91.640625 L110.640625,91.640625 L110.640625,109.248047 L128.570312,109.248047 L128.570312,91.640625 L137.59375,91.640625 L137.59375,135 L128.570312,135 L128.570312,115.224609 L110.640625,115.224609 L110.640625,135 L101.617188,135 Z M146.001953,134.619141 L146.001953,127.177734 C150.669945,129.130869 154.664046,130.107422 157.984375,130.107422 C160.308605,130.107422 162.139642,129.589849 163.477539,128.554688 C164.815436,127.519526 165.484375,126.11329 165.484375,124.335938 C165.484375,122.92968 165.064457,121.743169 164.224609,120.776367 C163.384761,119.809565 161.79298,118.662116 159.449219,117.333984 L156.548828,115.722656 C152.66209,113.535145 149.917977,111.44044 148.316406,109.438477 C146.714836,107.436513 145.914062,105.09767 145.914062,102.421875 C145.914062,98.8476384 147.227526,95.9765733 149.854492,93.8085938 C152.481458,91.6406142 155.953103,90.5566406 160.269531,90.5566406 C163.72658,90.5566406 167.623025,91.0546825 171.958984,92.0507812 L171.958984,98.9941406 C167.525368,97.3339761 164.019544,96.5039062 161.441406,96.5039062 C159.449209,96.5039062 157.852545,96.9482377 156.651367,97.8369141 C155.450189,98.7255904 154.849609,99.8925709 154.849609,101.337891 C154.849609,102.529303 155.269527,103.574214 156.109375,104.472656 C156.949223,105.371098 158.531238,106.474603 160.855469,107.783203 L163.960938,109.511719 C168.140646,111.85548 171.021476,114.013662 172.603516,115.986328 C174.185555,117.958994 174.976562,120.361314 174.976562,123.193359 C174.976562,127.216817 173.482437,130.371082 170.494141,132.65625 C167.505844,134.941418 163.384792,136.083984 158.130859,136.083984 C154.654279,136.083984 150.611351,135.595708 146.001953,134.619141 Z" id="path-2"></path>
    </defs>
    <g id="Page-1" stroke="none" stroke-width="1" fill="none" fill-rule="evenodd">
        <g id="cchsflow" filter="url(#filter-1)" transform="translate(9.000000, 9.000000)">
            <polygon id="Fill-1" fill="#4472C4" points="0.86066 54.917 93.32903 0.606 187.2497 54.8312 186.4492 162.06663 93.98085 216.377632 0.060129 162.15248"></polygon>
            <g id="CCHS" fill-rule="nonzero">
                <use fill="#000000" xlink:href="#path-2"></use>
                <use fill="#FFBF00" xlink:href="#path-2"></use>
            </g>
            <g id="upper-arrow" transform="translate(57.843750, 68.013876) scale(-1, 1) rotate(-109.000000) translate(-57.843750, -68.013876) translate(35.843750, 37.476562)">
                <path d="M17.4029851,9.19414222 C34.3299366,9.19414222 44,20.8080095 44,35.1344407 C44,49.460872 32.0921108,61.0747392 17.4029851,61.0747392 C10.9724008,61.0747392 5.07484068,58.8489408 0.476033536,55.1441659" id="Path" stroke="#FBF8F8" stroke-width="5" stroke-linecap="round"></path>
                <polygon id="Triangle" fill="#FBF8F8" points="21.7763434 0.13655099 21.2493589 17.8678943 12.5823135 9.23247536"></polygon>
            </g>
            <g id="lower-arrow" transform="translate(137.704499, 155.658692) rotate(66.000000) translate(-137.704499, -155.658692) translate(115.704499, 124.158692)">
                <path d="M17.4426532,10.4478889 C34.3443592,10.4478889 44.0000002,22.0444347 44.0000002,36.3494989 C44.0000002,50.6545632 32.1098709,62.251109 17.4426532,62.251109 C11.0216597,62.251109 5.1328955,60.0286302 0.5409472,56.3293808" id="Path" stroke="#FBF8F8" stroke-width="5" stroke-linecap="round"></path>
                <polygon id="Triangle" fill="#FBF8F8" points="24.7458448 0.155171579 24.1469988 20.3044253 14.2980836 10.4914493"></polygon>
            </g>
        </g>
    </g>
</svg>