<svg xmlns="http://www.w3.org/2000/svg" viewBox="0 0 124.4 143.7"><defs><clipPath id="prefix__a"><path fill="none" d="M124.4 107.8V35.9L62.2 0 0 35.9v71.9l62.2 35.9 62.2-35.9z"/></clipPath></defs><g clip-path="url(#prefix__a)"><path d="M53.6 145.3c-3.5 6.9-9.1 10.7-11.4 12.1-8.4 5.1-12.9 2.4-17.4 7.2-4 4.3-6.1 12.4-2.3 17.3 5.7 7.5 20.1 2 26.2 9.6 4.3 5.3-1.7 9.7.4 21.7.3 2 3.7 20.4 19.4 29.4 6.8 3.9 18.4 7.6 24.4 3.2 2.9-2.1 2.7-5 4.9-25.9 1.3-12.7 1.8-15.5 4.6-17.7 4.4-3.4 8.6-.5 18.1-3.1 4.6-1.3 14.6-4 15.7-10.5 1.5-8.4-13.8-14.5-13.7-25.5 0-6 4.7-10.3 10.3-15.3 8.2-7.4 12.7-6.2 14.1-10.3 3.6-10.6-20-36.9-36.4-36-12.4.7-15.3 16.7-25.7 14.2-6.9-1.6-9.4-9.6-17.7-10.5-.4 0-6.7-.6-10 3.2-3.9 4.4.7 9.7 0 22.3-.2 3.8-.5 8.9-3.2 14.4z" fill="#f04d64"/><path d="M41 136.7c-4.9 9.7-12.7 15.1-16 17.1C13.1 161 6.8 157.2.5 163.9c-5.7 6-8.6 17.4-3.3 24.4 7.9 10.6 28.3 2.9 36.9 13.5 6 7.4-2.3 13.7.5 30.5.5 2.9 5.2 28.7 27.3 41.4 9.5 5.5 25.9 10.7 34.3 4.5 4.1-3 3.9-7 6.8-36.3 1.8-17.8 2.4-21.8 6.4-24.9 6.3-4.8 12-.7 25.4-4.4 6.4-1.8 20.4-5.7 22-14.7 2.1-11.8-19.4-20.4-19.3-35.8 0-8.5 6.7-14.4 14.5-21.5 11.5-10.4 17.9-8.7 19.9-14.5 5.1-14.9-28.2-51.9-51.2-50.6-17.4 1-21.6 23.4-36.2 19.9-9.7-2.3-13.2-13.5-24.9-14.7-.6 0-9.4-.9-14.1 4.4-5.4 6.2 1 13.6.1 31.3-.3 5.4-.7 12.6-4.5 20.2zm15.8-28c3.3-3.8 9.6-3.2 10-3.2 8.4.9 10.8 8.8 17.7 10.5 10.4 2.5 13.3-13.5 25.7-14.2 16.4-.9 40.1 25.4 36.4 36-1.4 4.1-5.9 2.9-14.1 10.3-5.6 5-10.2 9.2-10.3 15.3-.1 11 15.2 17.1 13.7 25.5-1.1 6.4-11.1 9.2-15.7 10.5-9.5 2.6-13.6-.3-18.1 3.1-2.8 2.2-3.3 5-4.6 17.7-2.1 20.9-1.9 23.7-4.9 25.9-6 4.4-17.6.7-24.4-3.2-15.7-9.1-19.1-27.4-19.4-29.4-2-12 3.9-16.4-.4-21.7-6.1-7.5-20.6-2.1-26.2-9.6-3.7-5-1.7-13.1 2.3-17.3 4.5-4.8 9-2.1 17.4-7.2 2.4-1.4 7.9-5.2 11.4-12.1 2.7-5.4 3-10.5 3.2-14.4.6-12.6-3.9-17.9 0-22.3z" fill="#f7f6f7"/><path d="M19.9 133.2c-6.3 15-9.6 22.5-12.7 25.5-11.3 10.7-22.9 3.4-32.2 13.3-7.4 7.9-11.2 22.8-4.3 32 10.4 13.9 37.2 3.8 48.4 17.7 7.9 9.8-3.1 18 .7 40.1.6 3.8 6.9 37.6 35.8 54.4 12.5 7.2 34.1 14 45.1 6 5.4-4 5.1-9.1 9-47.8 2.4-23.4 3.2-28.6 8.5-32.6 8.2-6.3 15.8-.9 33.3-5.7 8.4-2.3 26.9-7.4 28.9-19.3 2.7-15.6-25.5-26.8-25.3-47 .1-11.1 8.8-18.9 19-28.2 14.8-13.3 22.2-11.7 26.1-19 11.5-21.8-33.4-83.7-69.5-79.3-20.7 2.5-26.5 25.2-47.2 23.1-17.4-1.8-24.8-19.1-39.8-15.5-10.3 2.5-15.7 12.7-16 13.3-7.3 14.3 5.7 24.3 1.2 46.4-.5 2.6-3.4 9.3-9.1 22.8zm26.5-39c4.7-5.3 13.5-4.5 14.1-4.4 11.7 1.2 15.2 12.4 24.9 14.7 14.6 3.5 18.7-18.9 36.2-19.9 23.1-1.3 56.3 35.7 51.2 50.6-2 5.8-8.3 4.1-19.9 14.5-7.8 7.1-14.4 13-14.5 21.5-.1 15.4 21.4 24 19.3 35.8-1.6 9-15.6 12.9-22 14.7-13.4 3.7-19.1-.4-25.4 4.4-4 3.1-4.6 7-6.4 24.9-3 29.4-2.7 33.3-6.8 36.3-8.4 6.1-24.8.9-34.3-4.5-22-12.7-26.8-38.5-27.3-41.4-2.8-16.9 5.5-23.1-.5-30.5-8.6-10.6-28.9-2.9-36.9-13.5-5.3-7-2.4-18.4 3.3-24.4 6.3-6.7 12.6-2.9 24.5-10.1 3.3-2 11.1-7.3 16-17.1 3.8-7.6 4.2-14.8 4.5-20.2.9-17.7-5.5-25.2-.1-31.3z" fill="#085070"/><path d="M12.6 117.3c-8.1 16.1-21 24.8-26.5 28.1-19.6 11.8-29.9 5.6-40.4 16.6-9.3 9.9-14.1 28.7-5.4 40.2 13.1 17.4 46.7 4.7 60.8 22.2 9.9 12.3-3.8 22.6.8 50.3.8 4.7 8.6 47.3 45 68.2 15.7 9.1 42.8 17.6 56.6 7.5 6.8-5 6.4-11.5 11.3-59.9 3-29.4 4.1-35.9 10.6-41 10.3-7.9 19.8-1.1 41.8-7.2 10.5-2.9 33.7-9.3 36.3-24.2 3.4-19.5-32-33.6-31.8-59 .1-14 11-23.8 23.9-35.4 19-17.1 29.5-14.3 32.8-23.9 8.4-24.6-46.4-85.6-84.5-83.4-28.7 1.7-35.5 38.7-59.6 32.9-16-3.8-21.8-22.2-41.1-24.2-.9 0-15.6-1.4-23.2 7.3-8.9 10.1 1.6 22.5.2 51.6-.4 8.9-1.1 20.7-7.4 33.3zm20.5-57.6c6.1-6.9 17.8-5.9 18.5-5.8 15.4 1.6 20 16.2 32.8 19.3 19.2 4.6 24.6-24.9 47.5-26.2 30.3-1.8 74 46.8 67.3 66.4-2.6 7.6-11 5.4-26.1 19-10.3 9.3-18.9 17.1-19 28.2-.2 20.2 28.1 31.5 25.3 47-2.1 11.9-20.5 17-28.9 19.3-17.5 4.9-25.1-.6-33.3 5.7-5.2 4-6.1 9.2-8.5 32.6-3.9 38.6-3.6 43.8-9 47.8-11 8-32.6 1.2-45.1-6-28.9-16.7-35.2-50.6-35.8-54.4-3.7-22.1 7.2-30.3-.7-40.1-11.2-13.9-38-3.8-48.4-17.7-6.9-9.2-3.1-24.1 4.3-32 8.3-8.8 16.6-3.8 32.2-13.3 4.3-2.6 14.6-9.6 21.1-22.4 5-10 5.6-19.4 5.9-26.5 1.1-23.2-7.2-33-.1-41.1z" fill="#2d789e"/><path d="M-13.5 42C-19.4 58.2-24 55.6-30.1 70.2c-13.8 33.2 7.3 53.6-5.9 70.5-12.2 15.6-33.4 3.4-49.4 20.4-11.1 11.7-13.9 33.8-6.7 49.2 8.9 19 29.7 19.6 46.3 47.3 1.8 2.9 2.9 5.2 6.3 10.6 10.6 16.9 20.3 27.8 22.9 30.9 26.3 30.6 22.3 64.6 55.1 83.5 19.2 11.1 52.3 21.5 69.2 9.2 8.3-6.1 7.8-14.1 13.8-73.4 3.6-36 4.9-44 13-50.2 12.6-9.7 24.3-1.4 51.2-8.8 16-4.4 37-13.2 44.5-29.7 5.8-12.8-1.4-17.7-1.5-48.2 0-9.9.1-31.1 7.8-53.4 9.8-28.1 21.1-27.2 24-43.4 7-38.3-47.8-92.4-103.4-102.1-12.1-2.1-22.7-1.8-41.5-1.3-20.4.6-41.2 4.3-81.9 11.9C15.8-3.3 10.4-1.9 7.2.5c-.3.2-.9.8-1.9 1.8C-5.6 13.6-9.5 31.2-13.5 42zm33.4-9.6c7.7-8.7 22.3-7.4 23.2-7.3 19.4 2 25.1 20.4 41.1 24.2 24.1 5.8 30.9-31.2 59.6-32.9 38-2.2 92.9 58.8 84.5 83.4-3.3 9.6-13.7 6.7-32.8 23.9-12.9 11.6-23.8 21.4-23.9 35.4-.2 25.4 35.2 39.5 31.8 59-2.6 14.9-25.8 21.3-36.3 24.2-22 6.1-31.5-.7-41.8 7.2-6.6 5-7.6 11.6-10.6 41-4.9 48.5-4.5 55-11.3 59.9-13.8 10.1-40.9 1.6-56.6-7.5-36.2-20.8-44-63.3-44.8-68.1-4.7-27.8 9.1-38.1-.8-50.4-14.1-17.5-47.7-4.8-60.8-22.2-8.7-11.5-3.9-30.3 5.4-40.2 10.4-11 20.8-4.8 40.4-16.6 5.4-3.3 18.4-12.1 26.4-28.1 6.3-12.6 7-24.4 7.4-33.3 1.4-29.2-9.1-41.5-.2-51.6z" fill="#50c5de"/></g><text transform="translate(22.6 83.3)" style="isolation:isolate" fill="#fff" font-family="BasicallyAMono-SemiBold,'Basically A Mono'" font-size="32" font-weight="600"><tspan x="0" y="0">CCHS</tspan></text></svg>